<svg width="33" height="32" viewBox="0 0 33 32" fill="currentColor" xmlns="http://www.w3.org/2000/svg">
<path d="M32.9998 22.1389H31.3331V28.5695C31.3331 29.1038 31.2151 29.5683 30.979 29.9632C30.7429 30.3582 30.4257 30.6806 30.0276 30.9306C29.6294 31.1806 29.1919 31.3241 28.7151 31.3612C28.2382 31.3982 27.7683 31.2963 27.3054 31.0556L2.16642 18.5278C1.63403 18.2732 1.24631 17.9202 1.00326 17.4688C0.7602 17.0174 0.638672 16.5486 0.638672 16.0625C0.638672 15.5764 0.7602 15.1028 1.00326 14.6417C1.24631 14.1805 1.63403 13.8231 2.16642 13.5695L27.3054 1.0139C27.7699 0.77315 28.2401 0.673609 28.7162 0.715276C29.1923 0.756942 29.6294 0.902776 30.0276 1.15278C30.4257 1.40278 30.7429 1.72523 30.979 2.12015C31.2151 2.51504 31.3331 2.97962 31.3331 3.5139V9.88894H32.9998V12.6667H26.8887V9.88894H28.5554V3.59723L20.0275 7.80557C20.8702 9.01854 21.5299 10.3189 22.0067 11.7067C22.4836 13.0944 22.722 14.5255 22.722 16C22.722 17.5093 22.479 18.963 21.9928 20.3612C21.5067 21.7593 20.8285 23.0741 19.9581 24.3056L28.5137 28.5417V22.1389H26.8887V19.3334H32.9998V22.1389ZM17.4165 23.0139C18.1757 21.9954 18.7868 20.8892 19.2498 19.6952C19.7128 18.5013 19.9443 17.2696 19.9443 16C19.9443 14.7222 19.7174 13.507 19.2637 12.3542C18.81 11.2014 18.2081 10.1111 17.4581 9.08336L3.41642 16.0278L17.4165 23.0139Z" fill="currentColor"/>
</svg>
