<svg width="20" height="20"  viewBox="0 0 20 20" fill="currentColor" xmlns="http://www.w3.org/2000/svg">
<path d="M14 12.8173C13.2628 12.8173 12.6362 12.5593 12.1202 12.0433C11.6042 11.5272 11.3461 10.9006 11.3461 10.1635C11.3461 9.42628 11.6042 8.79968 12.1202 8.28365C12.6362 7.76763 13.2628 7.50962 14 7.50962C14.7371 7.50962 15.3637 7.76763 15.8798 8.28365C16.3958 8.79968 16.6538 9.42628 16.6538 10.1635C16.6538 10.9006 16.3958 11.5272 15.8798 12.0433C15.3637 12.5593 14.7371 12.8173 14 12.8173ZM14 11.3173C14.3218 11.3173 14.5945 11.2054 14.8182 10.9817C15.042 10.758 15.1538 10.4853 15.1538 10.1635C15.1538 9.84165 15.042 9.56889 14.8182 9.34517C14.5945 9.12146 14.3218 9.0096 14 9.0096C13.6782 9.0096 13.4054 9.12146 13.1817 9.34517C12.958 9.56889 12.8461 9.84165 12.8461 10.1635C12.8461 10.4853 12.958 10.758 13.1817 10.9817C13.4054 11.2054 13.6782 11.3173 14 11.3173ZM9.25 19.2691C8.9939 19.2691 8.77923 19.1825 8.606 19.0093C8.43277 18.8361 8.34615 18.6214 8.34615 18.3653V16.7153C8.34615 16.4258 8.41514 16.1535 8.55313 15.8985C8.69112 15.6434 8.88431 15.4401 9.13268 15.2884C9.62754 14.991 10.0503 14.783 10.401 14.6644C10.7516 14.5458 11.2135 14.4389 11.7866 14.3437C11.9724 14.312 12.1557 14.3158 12.3365 14.3552C12.5173 14.3946 12.6679 14.4851 12.7884 14.6269L14 16.125L15.1865 14.6269C15.307 14.4731 15.4577 14.3795 15.6384 14.3461C15.8192 14.3128 16.0033 14.312 16.1908 14.3437C16.7687 14.4389 17.2308 14.5455 17.5771 14.6634C17.9233 14.7813 18.3482 14.9897 18.8519 15.2884C19.1006 15.4397 19.2948 15.6423 19.4346 15.8961C19.5743 16.15 19.6474 16.4198 19.6538 16.7057V18.3653C19.6538 18.6214 19.5672 18.8361 19.3939 19.0093C19.2207 19.1825 19.0061 19.2691 18.75 19.2691H9.25ZM9.82113 17.7692H13.3866L11.8346 15.7922C11.4814 15.8817 11.1379 15.9979 10.8043 16.141C10.4706 16.2841 10.1429 16.4435 9.82113 16.6192V17.7692ZM14.6134 17.7692H18.1538V16.6192C17.8423 16.4333 17.5197 16.273 17.1861 16.1384C16.8524 16.0038 16.509 15.8916 16.1557 15.8018L14.6134 17.7692ZM1.99997 16V1.99997V5.54037V5.12497V16ZM2.31227 17.5C1.81051 17.5 1.38302 17.3229 1.02982 16.9689C0.676608 16.6149 0.5 16.1894 0.5 15.6922V2.3077C0.5 1.81058 0.677008 1.38502 1.03102 1.03102C1.38502 0.677008 1.81058 0.5 2.3077 0.5H15.6922C16.1894 0.5 16.6149 0.677008 16.9689 1.03102C17.3229 1.38502 17.5 1.81058 17.5 2.3077V6.6538C17.291 6.41662 17.0682 6.19451 16.8317 5.98747C16.5951 5.78043 16.3179 5.63652 16 5.55575V2.3077C16 2.21795 15.9711 2.14423 15.9134 2.08652C15.8557 2.02882 15.782 1.99997 15.6922 1.99997H2.3077C2.21795 1.99997 2.14423 2.02882 2.08652 2.08652C2.02882 2.14423 1.99997 2.21795 1.99997 2.3077V15.6922C1.99997 15.782 2.02882 15.8557 2.08652 15.9134C2.14423 15.9711 2.21795 16 2.3077 16H6.05382C6.02304 16.1192 5.99996 16.2384 5.98457 16.3577C5.96919 16.4769 5.9615 16.5961 5.9615 16.7153V17.5H2.31227ZM4.99997 5.86535H11.4616C11.7987 5.62818 12.1631 5.45191 12.5548 5.33652C12.9465 5.22114 13.3448 5.15704 13.75 5.14422V5.11538C13.75 4.90287 13.6781 4.72475 13.5344 4.581C13.3906 4.43725 13.2125 4.36537 13 4.36537H4.99997C4.78747 4.36537 4.60936 4.43728 4.46563 4.5811C4.32188 4.72492 4.25 4.90312 4.25 5.1157C4.25 5.3283 4.32188 5.50639 4.46563 5.64997C4.60936 5.79356 4.78747 5.86535 4.99997 5.86535ZM4.99997 9.74995H9.0096C9.02242 9.4833 9.05831 9.22658 9.11727 8.97978C9.17626 8.73299 9.25318 8.48973 9.34805 8.25H4.99997C4.78747 8.25 4.60936 8.3219 4.46563 8.4657C4.32188 8.60952 4.25 8.78772 4.25 9.0003C4.25 9.2129 4.32188 9.39099 4.46563 9.53457C4.60936 9.67816 4.78747 9.74995 4.99997 9.74995ZM4.99997 13.6346H7.37217C7.54967 13.491 7.73618 13.3592 7.9317 13.2394C8.12722 13.1195 8.32689 13.0128 8.53073 12.9192V12.75C8.53073 12.5859 8.48714 12.4423 8.39997 12.3192C8.31279 12.1961 8.15126 12.1346 7.91537 12.1346H4.99997C4.78747 12.1346 4.60936 12.2065 4.46563 12.3503C4.32188 12.4941 4.25 12.6723 4.25 12.8849C4.25 13.0975 4.32188 13.2756 4.46563 13.4192C4.60936 13.5628 4.78747 13.6346 4.99997 13.6346Z" fill="currentColor"/>
</svg>
