<svg width="24" height="32" viewBox="0 0 24 32" fill="currentColor" xmlns="http://www.w3.org/2000/svg">
<path d="M12.0002 32C8.75016 32 5.99322 30.8681 3.72933 28.6042C1.46544 26.3403 0.333496 23.5833 0.333496 20.3333C0.333496 17.6111 1.15988 15.1968 2.81266 13.0903C4.46544 10.9838 6.60665 9.61575 9.23629 8.98614C8.56962 8.84725 7.92609 8.64586 7.30571 8.38197C6.68534 8.11809 6.12979 7.74077 5.63904 7.25002C4.81498 6.40743 4.27101 5.42364 4.00712 4.29864C3.74323 3.17364 3.63443 2.02318 3.6807 0.847266C4.11587 0.708377 4.54409 0.645863 4.96537 0.659724C5.38665 0.673613 5.75005 0.787029 6.05558 0.999974C7.86116 1.17589 9.38665 1.93978 10.632 3.29164C11.8775 4.6435 12.5048 6.25464 12.514 8.12506C12.8937 7.04172 13.4053 6.03014 14.0488 5.09031C14.6923 4.15047 15.4168 3.27778 16.2224 2.47222C16.4909 2.20372 16.815 2.06947 17.1946 2.06947C17.5742 2.06947 17.8983 2.20372 18.1668 2.47222C18.4354 2.74075 18.5696 3.06484 18.5696 3.44447C18.5696 3.82409 18.4354 4.14815 18.1668 4.41668C17.5002 5.08335 16.9029 5.80789 16.3752 6.59031C15.8474 7.3727 15.4168 8.19909 15.0835 9.06947C17.6391 9.77317 19.7085 11.1644 21.2918 13.2431C22.8752 15.3218 23.6668 17.6852 23.6668 20.3333C23.6668 23.5833 22.5349 26.3403 20.271 28.6042C18.0071 30.8681 15.2502 32 12.0002 32ZM12.0002 29.2223C14.4724 29.2223 16.5719 28.3588 18.2988 26.632C20.0257 24.9051 20.8891 22.8056 20.8891 20.3333C20.8891 17.8611 20.0257 15.7616 18.2988 14.0347C16.5719 12.3079 14.4724 11.4444 12.0002 11.4444C9.52794 11.4444 7.4284 12.3079 5.70154 14.0347C3.97468 15.7616 3.11125 17.8611 3.11125 20.3333C3.11125 22.8056 3.97468 24.9051 5.70154 26.632C7.4284 28.3588 9.52794 29.2223 12.0002 29.2223Z" fill="currentColor"/>
</svg>
