<svg width="34" height="38" viewBox="0 0 34 38" fill="currentColor" xmlns="http://www.w3.org/2000/svg">
<path d="M23.6945 33.8055L25.8056 31.6666L22.3333 28.1944L20.1944 30.3055C19.6944 30.8055 19.4491 31.3888 19.4583 32.0555C19.4676 32.7222 19.7129 33.3055 20.1944 33.8055C20.6944 34.287 21.2778 34.5324 21.9445 34.5416C22.6111 34.5509 23.1945 34.3055 23.6945 33.8055ZM27.7222 29.75L29.8611 27.6389C30.3611 27.1388 30.6065 26.5555 30.5972 25.8888C30.588 25.2222 30.3333 24.6388 29.8333 24.1388C29.3333 23.6388 28.7567 23.3888 28.1033 23.3888C27.45 23.3888 26.8693 23.6388 26.3611 24.1388L24.25 26.2778L27.7222 29.75ZM25.6528 35.7638C24.625 36.7915 23.3889 37.3054 21.9445 37.3054C20.5 37.3054 19.2639 36.7915 18.2361 35.7638C17.2083 34.7361 16.6945 33.4999 16.6945 32.0555C16.6945 30.6111 17.2083 29.3749 18.2361 28.3472L24.4028 22.1805C25.4306 21.1527 26.6667 20.6388 28.1111 20.6388C29.5556 20.6388 30.7917 21.1527 31.8195 22.1805C32.8472 23.2083 33.3611 24.4444 33.3611 25.8888C33.3611 27.3333 32.8472 28.5694 31.8195 29.5972L25.6528 35.7638ZM2.77775 34C2.01386 34 1.35993 33.728 0.815958 33.184C0.271986 32.64 0 31.9861 0 31.2222V6.77771C0 6.01382 0.271986 5.35989 0.815958 4.81592C1.35993 4.27195 2.01386 3.99996 2.77775 3.99996H10.8056C11.0185 3.01849 11.5162 2.21756 12.2986 1.59717C13.081 0.976806 13.9815 0.666626 15 0.666626C16.0185 0.666626 16.919 0.976806 17.7014 1.59717C18.4838 2.21756 18.9815 3.01849 19.1944 3.99996H27.2222C27.9861 3.99996 28.6401 4.27195 29.184 4.81592C29.728 5.35989 30 6.01382 30 6.77771V18.0694C29.537 17.9491 29.0741 17.8796 28.6111 17.8611C28.1482 17.8426 27.6852 17.8657 27.2222 17.9305V6.77771H2.77775V31.2222H13.9583C13.9121 31.6852 13.9028 32.1481 13.9306 32.6111C13.9584 33.074 14.0324 33.537 14.1528 34H2.77775ZM15 5.88883C15.3796 5.88883 15.706 5.75226 15.9792 5.47913C16.2523 5.20596 16.3889 4.87957 16.3889 4.49996C16.3889 4.12032 16.2523 3.79393 15.9792 3.52079C15.706 3.24763 15.3796 3.11104 15 3.11104C14.6204 3.11104 14.294 3.24763 14.0208 3.52079C13.7477 3.79393 13.6111 4.12032 13.6111 4.49996C13.6111 4.87957 13.7477 5.20596 14.0208 5.47913C14.294 5.75226 14.6204 5.88883 15 5.88883ZM6.66667 13.4444V10.6666H23.3333V13.4444H6.66667ZM6.66667 20.3888V17.6111H23.3333V19.4444C23.2037 19.5278 23.0718 19.6273 22.9375 19.743C22.8032 19.8588 22.6713 19.9814 22.5417 20.1111L22.2639 20.3888H6.66667ZM6.66667 27.3333V24.5555H18.0972L16.25 26.4028C16.0833 26.5694 15.9375 26.7245 15.8125 26.868C15.6875 27.0115 15.5648 27.1666 15.4445 27.3333H6.66667Z" fill="currentColor"/>
</svg>
